<svg width="996" height="1021" xmlns="http://www.w3.org/2000/svg" xmlns:xlink="http://www.w3.org/1999/xlink" xml:space="preserve" overflow="hidden"><defs><clipPath id="clip0"><rect x="1702" y="727" width="996" height="1021"/></clipPath><linearGradient x1="1695.75" y1="733.25" x2="2704.25" y2="1741.75" gradientUnits="userSpaceOnUse" spreadMethod="reflect" id="fill1"><stop offset="0" stop-color="#FF5B5B"/><stop offset="0.00892857" stop-color="#FE5A5A"/><stop offset="0.0178571" stop-color="#FE5A5A"/><stop offset="0.0267857" stop-color="#FE5A5A"/><stop offset="0.0357143" stop-color="#FE5A5A"/><stop offset="0.0446429" stop-color="#FE5A5A"/><stop offset="0.0535714" stop-color="#FE5A5A"/><stop offset="0.0625" stop-color="#FE5A5A"/><stop offset="0.0714286" stop-color="#FE5A5A"/><stop offset="0.0803571" stop-color="#FE5A5A"/><stop offset="0.0892857" stop-color="#FD5A5A"/><stop offset="0.0982143" stop-color="#FD5959"/><stop offset="0.107143" stop-color="#FD5959"/><stop offset="0.116071" stop-color="#FD5959"/><stop offset="0.125" stop-color="#FC5959"/><stop offset="0.133929" stop-color="#FC5858"/><stop offset="0.142857" stop-color="#FC5858"/><stop offset="0.151786" stop-color="#FB5858"/><stop offset="0.160714" stop-color="#FB5858"/><stop offset="0.169643" stop-color="#FA5757"/><stop offset="0.178571" stop-color="#FA5757"/><stop offset="0.1875" stop-color="#FA5757"/><stop offset="0.196429" stop-color="#F95656"/><stop offset="0.205357" stop-color="#F95656"/><stop offset="0.214286" stop-color="#F85555"/><stop offset="0.223214" stop-color="#F85555"/><stop offset="0.232143" stop-color="#F75555"/><stop offset="0.241071" stop-color="#F75454"/><stop offset="0.25" stop-color="#F65454"/><stop offset="0.258929" stop-color="#F65353"/><stop offset="0.267857" stop-color="#F55353"/><stop offset="0.276786" stop-color="#F45252"/><stop offset="0.285714" stop-color="#F45252"/><stop offset="0.294643" stop-color="#F35151"/><stop offset="0.303571" stop-color="#F25151"/><stop offset="0.3125" stop-color="#F25050"/><stop offset="0.321429" stop-color="#F15050"/><stop offset="0.330357" stop-color="#F04F4F"/><stop offset="0.339286" stop-color="#F04F4F"/><stop offset="0.348214" stop-color="#EF4E4E"/><stop offset="0.357143" stop-color="#EE4D4D"/><stop offset="0.366071" stop-color="#ED4D4D"/><stop offset="0.375" stop-color="#ED4C4C"/><stop offset="0.383929" stop-color="#EC4B4B"/><stop offset="0.392857" stop-color="#EB4B4B"/><stop offset="0.401786" stop-color="#EA4A4A"/><stop offset="0.410714" stop-color="#E94949"/><stop offset="0.419643" stop-color="#E84949"/><stop offset="0.428571" stop-color="#E74848"/><stop offset="0.4375" stop-color="#E74747"/><stop offset="0.446429" stop-color="#E64646"/><stop offset="0.455357" stop-color="#E54646"/><stop offset="0.464286" stop-color="#E44545"/><stop offset="0.473214" stop-color="#E34444"/><stop offset="0.482143" stop-color="#E24343"/><stop offset="0.491071" stop-color="#E14343"/><stop offset="0.5" stop-color="#E04242"/><stop offset="0.508929" stop-color="#DF4141"/><stop offset="0.517857" stop-color="#DE4040"/><stop offset="0.526786" stop-color="#DD3F3F"/><stop offset="0.535714" stop-color="#DB3E3E"/><stop offset="0.544643" stop-color="#DA3D3D"/><stop offset="0.553571" stop-color="#D93C3C"/><stop offset="0.5625" stop-color="#D83C3C"/><stop offset="0.571429" stop-color="#D73B3B"/><stop offset="0.580357" stop-color="#D63A3A"/><stop offset="0.589286" stop-color="#D53939"/><stop offset="0.598214" stop-color="#D33838"/><stop offset="0.607143" stop-color="#D23737"/><stop offset="0.616071" stop-color="#D13636"/><stop offset="0.625" stop-color="#D03535"/><stop offset="0.633929" stop-color="#CE3434"/><stop offset="0.642857" stop-color="#CD3333"/><stop offset="0.651786" stop-color="#CC3232"/><stop offset="0.660714" stop-color="#CB3131"/><stop offset="0.669643" stop-color="#C93030"/><stop offset="0.678571" stop-color="#C82F2F"/><stop offset="0.6875" stop-color="#C72D2D"/><stop offset="0.696429" stop-color="#C52C2C"/><stop offset="0.705357" stop-color="#C42B2B"/><stop offset="0.714286" stop-color="#C22A2A"/><stop offset="0.723214" stop-color="#C12929"/><stop offset="0.732143" stop-color="#C02828"/><stop offset="0.741071" stop-color="#BE2727"/><stop offset="0.75" stop-color="#BD2525"/><stop offset="0.758929" stop-color="#BB2424"/><stop offset="0.767857" stop-color="#BA2323"/><stop offset="0.776786" stop-color="#B82222"/><stop offset="0.785714" stop-color="#B72121"/><stop offset="0.794643" stop-color="#B51F1F"/><stop offset="0.803571" stop-color="#B41E1E"/><stop offset="0.8125" stop-color="#B21D1D"/><stop offset="0.821429" stop-color="#B01C1C"/><stop offset="0.830357" stop-color="#AF1A1A"/><stop offset="0.839286" stop-color="#AD1919"/><stop offset="0.848214" stop-color="#AC1818"/><stop offset="0.857143" stop-color="#AA1616"/><stop offset="0.866071" stop-color="#A81515"/><stop offset="0.875" stop-color="#A71414"/><stop offset="0.883929" stop-color="#A51212"/><stop offset="0.892857" stop-color="#A31111"/><stop offset="0.901786" stop-color="#A11010"/><stop offset="0.910714" stop-color="#A00E0E"/><stop offset="0.919643" stop-color="#9E0D0D"/><stop offset="0.928571" stop-color="#9C0B0B"/><stop offset="0.9375" stop-color="#9A0A0A"/><stop offset="0.946429" stop-color="#990808"/><stop offset="0.955357" stop-color="#970707"/><stop offset="0.964286" stop-color="#950505"/><stop offset="0.973214" stop-color="#930404"/><stop offset="0.982143" stop-color="#910303"/><stop offset="0.991071" stop-color="#8F0101"/><stop offset="1" stop-color="#8E0000"/></linearGradient></defs><g clip-path="url(#clip0)" transform="translate(-1702 -727)"><path d="M2440.14 1438.83 2698 1274.5 2627.3 1250.54C2615.17 1246.44 2608.66 1233.27 2612.76 1221.13 2612.95 1220.57 2613.16 1220.02 2613.39 1219.47L2672.07 1081.58 2523.99 1113.48C2511.48 1116.18 2499.15 1108.21 2496.46 1095.68 2496.3 1094.96 2496.18 1094.23 2496.1 1093.5L2487.49 1020.32 2378.01 1141.91C2371.58 1149.05 2360.59 1149.62 2353.46 1143.18 2348.97 1139.13 2346.91 1133.04 2348 1127.09L2399 851.516 2310.14 910.861C2299.49 917.972 2285.09 915.094 2277.99 904.432 2277.24 903.301 2276.58 902.106 2276.04 900.86L2200.03 727 2124.04 900.86C2118.91 912.601 2105.24 917.953 2093.51 912.815 2092.27 912.27 2091.07 911.616 2089.94 910.861L2001.01 851.516 2052.01 1127.09C2053.75 1136.54 2047.51 1145.62 2038.07 1147.37 2032.13 1148.47 2026.05 1146.4 2022 1141.91L1912.52 1020.32 1903.92 1093.5C1902.42 1106.23 1890.91 1115.34 1878.19 1113.84 1877.46 1113.76 1876.74 1113.64 1876.02 1113.48L1727.93 1081.58 1786.61 1219.47C1791.62 1231.26 1786.14 1244.89 1774.36 1249.91 1773.81 1250.14 1773.26 1250.35 1772.7 1250.54L1702 1274.5 1959.92 1438.83C1969.33 1444.83 1973.14 1456.67 1969 1467.03L1926.38 1573.69 2161.91 1519.44C2168.15 1518 2174.37 1521.9 2175.8 1528.14 2176.04 1529.18 2176.14 1530.25 2176.08 1531.32L2165.26 1748 2234.8 1748 2223.97 1531.28C2223.68 1524.88 2228.62 1519.45 2235.01 1519.15 2236.07 1519.1 2237.12 1519.2 2238.15 1519.44L2473.68 1573.69 2431.06 1467.03C2426.92 1456.67 2430.73 1444.83 2440.14 1438.83Z" fill="url(#fill1)" fill-rule="evenodd"/></g></svg>